<svg width="68" height="76" viewBox="0 0 68 76" fill="none" xmlns="http://www.w3.org/2000/svg">
<g filter="url(#filter0_d)">
<path d="M30.194 13.7053C30.194 8.7125 28.1089 6.22982 25.4143 5.9212C23.0843 5.65433 19.5697 7.02537 19.1591 12.9509C19.313 18.6844 23.2544 20.1864 25.1898 19.8434C26.8578 19.8777 30.194 18.6981 30.194 13.7053Z" fill="#1D3557"/>
</g>
<g filter="url(#filter1_b)">
<path d="M40.2024 30.3054C37.5506 29.871 31.8556 29.4687 30.2902 31.3341C28.3334 33.6659 26.7937 43.2332 30.2902 56.0581C32.9266 65.7283 41.6459 61.6476 41.6459 62.7106C41.3679 63.9451 41.1134 66.8804 42.3195 68.7459C42.4348 68.9241 42.5351 69.0784 42.6221 69.2109C42.6605 69.216 42.6987 69.221 42.7365 69.226C43.0654 69.7842 43.4449 70.4659 42.6221 69.2109C35.9702 68.3423 20.4561 67.0548 10.6583 68.7459C11.054 67.82 11.6078 65.4539 10.6583 63.3965C14.7109 63.6708 22.6363 62.5872 21.9178 56.0581C22.8908 47.131 23.2971 29.4824 17.1381 30.3054H10.6583C11.1502 29.2881 11.8388 26.2659 10.6583 22.3155C15.4701 23.71 28.7504 25.2783 39.4004 22.727C39.1808 23.4692 38.9619 25.3902 39.0826 26.842C39.1793 28.006 39.4943 29.2433 40.2024 30.3054Z" fill="#1D3557"/>
</g>
<path fill-rule="evenodd" clip-rule="evenodd" d="M26.9817 12.7201C26.9149 12.0934 26.6808 11.5237 26.4996 11.2156L27.8576 10.3032C28.1469 10.7952 28.4774 11.6074 28.5753 12.5261C28.6746 13.4585 28.538 14.5689 27.7956 15.5248L26.5616 14.4296C26.9483 13.9316 27.047 13.3331 26.9817 12.7201Z" fill="#F2F2F2"/>
<path d="M42.4 29.4953L43.5688 32.7158L36.4121 32.7261C33.3726 33.8871 30.5358 48.1844 34.8437 55.8619C38.29 62.0039 42.9053 61.5511 44.7821 60.5569L44.7866 63.0355C53.5205 64.5432 57.4225 58.8589 58.2818 55.8282C59.5597 53.4304 61.2169 46.4219 57.6226 37.5702C54.0282 28.7185 45.9766 28.4987 42.4 29.4953Z" fill="#1D3557"/>
<ellipse cx="46.1505" cy="46.55" rx="5.6489" ry="8.36" fill="#F1FAEE"/>
<g style="mix-blend-mode:hard-light" filter="url(#filter2_d)">
<path d="M50.5204 36.385C52.6876 37.7783 54.6558 39.482 54.9969 43.89" stroke="#F2F2F2" stroke-width="3"/>
</g>
<defs>
<filter id="filter0_d" x="15.1591" y="5.89001" width="19.0349" height="21.9995" filterUnits="userSpaceOnUse" color-interpolation-filters="sRGB">
<feFlood flood-opacity="0" result="BackgroundImageFix"/>
<feColorMatrix in="SourceAlpha" type="matrix" values="0 0 0 0 0 0 0 0 0 0 0 0 0 0 0 0 0 0 127 0"/>
<feOffset dy="4"/>
<feGaussianBlur stdDeviation="2"/>
<feColorMatrix type="matrix" values="0 0 0 0 0 0 0 0 0 0 0 0 0 0 0 0 0 0 0.25 0"/>
<feBlend mode="normal" in2="BackgroundImageFix" result="effect1_dropShadow"/>
<feBlend mode="normal" in="SourceGraphic" in2="effect1_dropShadow" result="shape"/>
</filter>
<filter id="filter1_b" x="6.65833" y="18.3155" width="40.4583" height="55.6045" filterUnits="userSpaceOnUse" color-interpolation-filters="sRGB">
<feFlood flood-opacity="0" result="BackgroundImageFix"/>
<feGaussianBlur in="BackgroundImage" stdDeviation="2"/>
<feComposite in2="SourceAlpha" operator="in" result="effect1_backgroundBlur"/>
<feBlend mode="normal" in="SourceGraphic" in2="effect1_backgroundBlur" result="shape"/>
</filter>
<filter id="filter2_d" x="45.7092" y="35.1233" width="14.7832" height="16.8824" filterUnits="userSpaceOnUse" color-interpolation-filters="sRGB">
<feFlood flood-opacity="0" result="BackgroundImageFix"/>
<feColorMatrix in="SourceAlpha" type="matrix" values="0 0 0 0 0 0 0 0 0 0 0 0 0 0 0 0 0 0 127 0"/>
<feOffset dy="4"/>
<feGaussianBlur stdDeviation="2"/>
<feColorMatrix type="matrix" values="0 0 0 0 0 0 0 0 0 0 0 0 0 0 0 0 0 0 0.25 0"/>
<feBlend mode="normal" in2="BackgroundImageFix" result="effect1_dropShadow"/>
<feBlend mode="normal" in="SourceGraphic" in2="effect1_dropShadow" result="shape"/>
</filter>
</defs>
</svg>
